<?xml version="1.0" encoding="UTF-8" standalone="no"?>
<!-- Created with Inkscape (http://www.inkscape.org/) -->

<svg
   xmlns:dc="http://purl.org/dc/elements/1.1/"
   xmlns:cc="http://creativecommons.org/ns#"
   xmlns:rdf="http://www.w3.org/1999/02/22-rdf-syntax-ns#"
   xmlns:svg="http://www.w3.org/2000/svg"
   xmlns="http://www.w3.org/2000/svg"
   xmlns:xlink="http://www.w3.org/1999/xlink"
   xmlns:sodipodi="http://sodipodi.sourceforge.net/DTD/sodipodi-0.dtd"
   xmlns:inkscape="http://www.inkscape.org/namespaces/inkscape"
   width="210mm"
   height="297mm"
   viewBox="0 0 210 297"
   version="1.1"
   id="svg8"
   inkscape:version="0.92.1 r15371"
   sodipodi:docname="thoradottech1.svg">
  <defs
     id="defs2">
    <radialGradient
       inkscape:collect="always"
       xlink:href="#linearGradient6080"
       id="radialGradient6082"
       cx="18.707855"
       cy="94.178047"
       fx="18.707855"
       fy="94.178047"
       r="41.010418"
       gradientUnits="userSpaceOnUse"
       gradientTransform="matrix(0.05810829,0.05526168,-0.06665541,0.07008846,128.07414,105.83603)" />
    <linearGradient
       inkscape:collect="always"
       id="linearGradient6080">
      <stop
         style="stop-color:#eabb00;stop-opacity:1"
         offset="0"
         id="stop6076" />
      <stop
         style="stop-color:#803300;stop-opacity:1"
         offset="1"
         id="stop6078" />
    </linearGradient>
  </defs>
  <sodipodi:namedview
     id="base"
     pagecolor="#ffffff"
     bordercolor="#666666"
     borderopacity="1.0"
     inkscape:pageopacity="0.0"
     inkscape:pageshadow="2"
     inkscape:zoom="1.4142136"
     inkscape:cx="316.157"
     inkscape:cy="796.80691"
     inkscape:document-units="px"
     inkscape:current-layer="layer1"
     showgrid="false"
     showborder="false"
     inkscape:object-paths="true"
     inkscape:snap-intersection-paths="true"
     inkscape:snap-smooth-nodes="true"
     inkscape:window-width="1018"
     inkscape:window-height="975"
     inkscape:window-x="50"
     inkscape:window-y="5"
     inkscape:window-maximized="1" />
  <metadata
     id="metadata5">
    <rdf:RDF>
      <cc:Work
         rdf:about="">
        <dc:format>image/svg+xml</dc:format>
        <dc:type
           rdf:resource="http://purl.org/dc/dcmitype/StillImage" />
        <dc:title></dc:title>
      </cc:Work>
    </rdf:RDF>
  </metadata>
  <g
     inkscape:label="Layer 1"
     inkscape:groupmode="layer"
     id="layer1">
    <g
       aria-label="thoradot.tech"
       style="font-style:normal;font-variant:normal;font-weight:normal;font-stretch:normal;font-size:15.28290272px;line-height:1.25;font-family:'8514fix';-inkscape-font-specification:'8514fix, Normal';font-variant-ligatures:normal;font-variant-caps:normal;font-variant-numeric:normal;font-feature-settings:normal;text-align:start;letter-spacing:0px;word-spacing:0px;writing-mode:lr-tb;text-anchor:start;fill:#ff6600;fill-opacity:1;stroke:none;stroke-width:0.38207254"
       id="text4583"
       transform="translate(-4.7625,-16.139583)">
      <path
         d="m 91.458017,157.79225 q 0.322255,0.25197 0.659879,0.58595 0.333115,0.32803 0.554094,0.61936 0.771171,1.01667 0.625556,1.96072 -0.145615,0.94405 -1.352547,1.85953 l -3.531614,2.6788 0.57274,0.75508 -0.939385,0.71254 -0.572741,-0.75507 -1.908499,1.44763 -0.847836,-1.11775 1.908498,-1.44763 -1.74979,-2.30685 0.939385,-0.71254 1.749791,2.30684 3.026249,-2.29547 q 0.523202,-0.39686 0.802437,-0.64613 0.273289,-0.24476 0.42071,-0.58137 0.138605,-0.31119 0.0802,-0.62281 -0.06886,-0.31305 -0.425134,-0.78274 -0.207449,-0.27349 -0.510229,-0.51214 -0.308725,-0.23413 -0.461449,-0.32435 l -0.0451,-0.0595 z"
         style="font-style:normal;font-variant:normal;font-weight:normal;font-stretch:normal;font-size:15.28290272px;font-family:'8514fix';-inkscape-font-specification:'8514fix, Normal';font-variant-ligatures:normal;font-variant-caps:normal;font-variant-numeric:normal;font-feature-settings:normal;text-align:start;writing-mode:lr-tb;text-anchor:start;fill:#ff6600;stroke-width:0.38207254"
         id="path4615"
         inkscape:connector-curvature="0" />
      <path
         d="m 88.661322,149.54265 0.3909,1.34736 -4.558104,1.32241 q -0.551846,0.1601 -1.01331,0.36391 -0.468631,0.20589 -0.691069,0.45691 -0.249025,0.2665 -0.294637,0.64492 -0.05278,0.38051 0.103166,0.91802 0.160102,0.55185 0.607099,1.07485 0.446997,0.523 1.029942,0.95217 l 5.977136,-1.7341 0.3909,1.34737 -11.151587,3.23532 -0.3909,-1.34737 4.034925,-1.17062 q -0.706152,-0.47889 -1.195442,-1.06732 -0.48929,-0.58844 -0.695136,-1.29795 -0.376345,-1.2972 0.20731,-2.20469 0.583656,-0.90748 2.052856,-1.33373 z"
         style="font-style:normal;font-variant:normal;font-weight:normal;font-stretch:normal;font-size:15.28290272px;font-family:'8514fix';-inkscape-font-specification:'8514fix, Normal';font-variant-ligatures:normal;font-variant-caps:normal;font-variant-numeric:normal;font-feature-settings:normal;text-align:start;writing-mode:lr-tb;text-anchor:start;fill:#ff6600;stroke-width:0.38207254"
         id="path4617"
         inkscape:connector-curvature="0" />
      <path
         d="m 85.544847,139.08706 q 2.012074,0.31912 3.01292,1.53564 1.000846,1.21652 0.726147,2.94853 -0.277037,1.74675 -1.605184,2.59389 -1.326978,0.83977 -3.339052,0.52065 -2.012074,-0.31912 -3.014089,-1.52827 -1.008217,-1.2177 -0.73118,-2.96444 0.274699,-1.73201 1.610217,-2.57798 1.328147,-0.84714 3.340221,-0.52802 z m -0.226773,1.42982 q -1.599341,-0.25365 -2.472574,0.25008 -0.880604,0.50256 -1.057113,1.61547 -0.178846,1.12764 0.503039,1.87802 0.675684,0.74184 2.275025,0.99549 1.547749,0.24548 2.450464,-0.25358 0.895344,-0.50022 1.073022,-1.6205 0.175339,-1.10553 -0.513916,-1.85708 -0.695457,-0.76008 -2.257947,-1.0079 z"
         style="font-style:normal;font-variant:normal;font-weight:normal;font-stretch:normal;font-size:15.28290272px;font-family:'8514fix';-inkscape-font-specification:'8514fix, Normal';font-variant-ligatures:normal;font-variant-caps:normal;font-variant-numeric:normal;font-feature-settings:normal;text-align:start;writing-mode:lr-tb;text-anchor:start;fill:#ff6600;stroke-width:0.38207254"
         id="path4619"
         inkscape:connector-curvature="0" />
      <path
         d="m 87.4282,129.86631 -0.03708,0.0648 q -0.220495,0.23491 -0.394719,0.47911 -0.176991,0.23402 -0.377223,0.58372 -0.322597,0.5634 -0.370384,1.23257 -0.05426,0.66545 0.06267,1.37733 l 5.135399,2.94045 -0.697104,1.21747 -7.233596,-4.14184 0.697105,-1.21747 1.068526,0.61182 q -0.167536,-1.05902 -0.09197,-1.74667 0.0728,-0.69784 0.402816,-1.27419 0.181692,-0.31732 0.282696,-0.44867 0.09453,-0.13505 0.303011,-0.39404 z"
         style="font-style:normal;font-variant:normal;font-weight:normal;font-stretch:normal;font-size:15.28290272px;font-family:'8514fix';-inkscape-font-specification:'8514fix, Normal';font-variant-ligatures:normal;font-variant-caps:normal;font-variant-numeric:normal;font-feature-settings:normal;text-align:start;writing-mode:lr-tb;text-anchor:start;fill:#ff6600;stroke-width:0.38207254"
         id="path4621"
         inkscape:connector-curvature="0" />
      <path
         d="m 99.084688,128.27539 -1.074318,0.89059 -0.566739,-0.68366 q -0.06266,0.21673 -0.16206,0.59961 -0.09842,0.37238 -0.242491,0.66629 -0.160478,0.35597 -0.439486,0.73266 -0.274246,0.38243 -0.745337,0.77296 -0.867497,0.71914 -1.946975,0.6447 -1.079478,-0.0744 -1.817668,-0.96491 -0.604839,-0.72962 -0.666084,-1.43491 -0.06026,-0.71579 0.30567,-1.45533 0.371679,-0.7443 1.117016,-1.51726 0.745337,-0.77296 1.649419,-1.59997 l -0.138112,-0.16661 q -0.304801,-0.36768 -0.636962,-0.49943 -0.326416,-0.13652 -0.682007,-0.0744 -0.339339,0.0584 -0.69916,0.2791 -0.359821,0.22074 -0.710267,0.51126 -0.425131,0.35242 -0.852677,0.90071 -0.432309,0.54254 -0.813362,1.21707 l -0.05745,0.0476 -0.90964,-1.0973 q 0.244538,-0.34811 0.756294,-0.94682 0.511757,-0.59872 1.092003,-1.07973 0.677912,-0.56198 1.272979,-0.86141 0.596049,-0.30995 1.187568,-0.34474 0.581012,-0.0358 1.118261,0.22646 0.537249,0.26222 1.0516,0.88269 z m -2.384009,-0.68929 -1.481142,-1.7867 q -0.470258,0.4383 -1.0948,1.05296 -0.618797,0.60991 -0.91897,1.04291 -0.355808,0.5179 -0.409696,1.03753 -0.05865,0.51389 0.346163,1.00221 0.457202,0.55153 1.023776,0.55681 0.561811,-4.7e-4 1.245468,-0.56721 0.568757,-0.47149 0.858873,-1.08032 0.285353,-0.61459 0.430328,-1.25819 z"
         style="font-style:normal;font-variant:normal;font-weight:normal;font-stretch:normal;font-size:15.28290272px;font-family:'8514fix';-inkscape-font-specification:'8514fix, Normal';font-variant-ligatures:normal;font-variant-caps:normal;font-variant-numeric:normal;font-feature-settings:normal;text-align:start;writing-mode:lr-tb;text-anchor:start;fill:#ff6600;stroke-width:0.38207254"
         id="path4623"
         inkscape:connector-curvature="0" />
      <path
         d="m 108.10277,125.26057 -1.35722,0.35517 -0.22104,-0.84465 q -0.45251,0.65837 -1.01413,1.10618 -0.56161,0.4478 -1.3052,0.64239 -1.44385,0.37784 -2.58666,-0.511 -1.13559,-0.89073 -1.651345,-2.86158 -0.268268,-1.02514 -0.189201,-1.90204 0.08629,-0.8788 0.437056,-1.57225 0.34733,-0.67713 0.92149,-1.13593 0.58139,-0.46069 1.28166,-0.64395 0.63529,-0.16625 1.16209,-0.15755 0.52492,0.001 1.14004,0.14134 l -0.91438,-3.49412 1.35722,-0.35517 z m -1.87676,-1.63012 -1.21098,-4.62754 q -0.6129,-0.10188 -1.07061,-0.0824 -0.45772,0.0195 -0.97028,0.15364 -1.14065,0.2985 -1.56813,1.25886 -0.42748,0.96037 -0.0459,2.41866 0.37596,1.43663 1.06334,2.05897 0.6855,0.61512 1.76839,0.33173 0.57754,-0.15113 1.1034,-0.55872 0.52396,-0.41481 0.93073,-0.95322 z"
         style="font-style:normal;font-variant:normal;font-weight:normal;font-stretch:normal;font-size:15.28290272px;font-family:'8514fix';-inkscape-font-specification:'8514fix, Normal';font-variant-ligatures:normal;font-variant-caps:normal;font-variant-numeric:normal;font-feature-settings:normal;text-align:start;writing-mode:lr-tb;text-anchor:start;fill:#ff6600;stroke-width:0.38207254"
         id="path4625"
         inkscape:connector-curvature="0" />
      <path
         d="m 118.68148,122.35634 q -0.36504,2.00425 -1.60412,2.97702 -1.23909,0.97278 -2.96436,0.65855 -1.73996,-0.3169 -2.55652,-1.66406 -0.80921,-1.34583 -0.44418,-3.35009 0.36504,-2.00425 1.59678,-2.97836 1.24043,-0.98011 2.98038,-0.66322 1.72528,0.31423 2.54049,1.66874 0.81656,1.34716 0.45153,3.35142 z m -1.42427,-0.2594 q 0.29015,-1.59313 -0.19348,-2.47765 -0.4823,-0.89186 -1.59088,-1.09377 -1.12326,-0.20458 -1.88903,0.45997 -0.75709,0.65855 -1.04725,2.25168 -0.28079,1.54173 0.19749,2.45562 0.47963,0.90654 1.59555,1.10978 1.10124,0.20057 1.86834,-0.47132 0.77579,-0.6779 1.05926,-2.23431 z"
         style="font-style:normal;font-variant:normal;font-weight:normal;font-stretch:normal;font-size:15.28290272px;font-family:'8514fix';-inkscape-font-specification:'8514fix, Normal';font-variant-ligatures:normal;font-variant-caps:normal;font-variant-numeric:normal;font-feature-settings:normal;text-align:start;writing-mode:lr-tb;text-anchor:start;fill:#ff6600;stroke-width:0.38207254"
         id="path4627"
         inkscape:connector-curvature="0" />
      <path
         d="m 123.6385,129.75077 q -0.39323,-0.11275 -0.83145,-0.29575 -0.43182,-0.17917 -0.74592,-0.36638 -1.09614,-0.6533 -1.31517,-1.58306 -0.21902,-0.92976 0.55654,-2.23103 l 2.26937,-3.80766 -0.8141,-0.4852 0.60364,-1.01281 0.8141,0.4852 1.22637,-2.05767 1.20512,0.71825 -1.22638,2.05767 2.48716,1.48235 -0.60364,1.01281 -2.48715,-1.48235 -1.94463,3.26279 q -0.3362,0.5641 -0.50159,0.89989 -0.16156,0.32938 -0.172,0.69671 -0.0118,0.34046 0.15921,0.60743 0.18122,0.26439 0.68763,0.5662 0.29487,0.17575 0.66505,0.28344 0.37399,0.10128 0.5494,0.12764 l 0.0641,0.0382 z"
         style="font-style:normal;font-variant:normal;font-weight:normal;font-stretch:normal;font-size:15.28290272px;font-family:'8514fix';-inkscape-font-specification:'8514fix, Normal';font-variant-ligatures:normal;font-variant-caps:normal;font-variant-numeric:normal;font-feature-settings:normal;text-align:start;writing-mode:lr-tb;text-anchor:start;fill:#ff6600;stroke-width:0.38207254"
         id="path4629"
         inkscape:connector-curvature="0" />
      <path
         d="m 126.42357,132.67784 -1.23498,-1.28675 1.5344,-1.47267 1.23498,1.28674 z"
         style="font-style:normal;font-variant:normal;font-weight:normal;font-stretch:normal;font-size:15.28290272px;font-family:'8514fix';-inkscape-font-specification:'8514fix, Normal';font-variant-ligatures:normal;font-variant-caps:normal;font-variant-numeric:normal;font-feature-settings:normal;text-align:start;writing-mode:lr-tb;text-anchor:start;fill:#ff6600;stroke-width:0.38207254"
         id="path4631"
         inkscape:connector-curvature="0" />
      <path
         d="m 130.55618,139.02792 q -0.28001,-0.29821 -0.5627,-0.67982 -0.27914,-0.37504 -0.45305,-0.69668 -0.60694,-1.12249 -0.31892,-2.03324 0.28802,-0.91075 1.62056,-1.63126 l 3.89915,-2.1083 -0.45076,-0.83366 1.03715,-0.56079 0.45076,0.83366 2.10712,-1.13933 0.66727,1.23407 -2.10712,1.13933 1.37714,2.54692 -1.03715,0.56079 -1.37714,-2.54692 -3.34119,1.80661 q -0.57765,0.31234 -0.89166,0.51606 -0.30745,0.20017 -0.50453,0.51034 -0.18449,0.28638 -0.17433,0.60326 0.0203,0.31989 0.30066,0.83847 0.16327,0.30195 0.42607,0.58402 0.26937,0.27852 0.40653,0.39099 l 0.0355,0.0656 z"
         style="font-style:normal;font-variant:normal;font-weight:normal;font-stretch:normal;font-size:15.28290272px;font-family:'8514fix';-inkscape-font-specification:'8514fix, Normal';font-variant-ligatures:normal;font-variant-caps:normal;font-variant-numeric:normal;font-feature-settings:normal;text-align:start;writing-mode:lr-tb;text-anchor:start;fill:#ff6600;stroke-width:0.38207254"
         id="path4633"
         inkscape:connector-curvature="0" />
      <path
         d="m 136.09169,147.03632 -0.87455,-6.07893 q -0.76079,0.10945 -1.29659,0.42025 -0.52842,0.30973 -0.83297,0.76066 -0.29928,0.43509 -0.40111,0.98503 -0.10076,0.55731 -0.009,1.19254 0.12113,0.84203 0.57572,1.64364 0.46304,0.80793 0.8401,1.12311 l 0.0106,0.0739 -1.51419,0.21784 q -0.39641,-0.6592 -0.70104,-1.36175 -0.30463,-0.70255 -0.42045,-1.50766 -0.29542,-2.05339 0.64676,-3.36505 0.94956,-1.31272 2.99557,-1.60707 2.02385,-0.29116 3.37138,0.63831 1.34859,0.93687 1.60787,2.73912 0.24015,1.66931 -0.6052,2.71071 -0.84429,1.04878 -2.63916,1.307 z m 0.86916,-1.50472 q 1.09211,-0.16465 1.61177,-0.79731 0.52072,-0.62527 0.36132,-1.73322 -0.16045,-1.11533 -0.91347,-1.68553 -0.75196,-0.5628 -1.7397,-0.51117 z"
         style="font-style:normal;font-variant:normal;font-weight:normal;font-stretch:normal;font-size:15.28290272px;font-family:'8514fix';-inkscape-font-specification:'8514fix, Normal';font-variant-ligatures:normal;font-variant-caps:normal;font-variant-numeric:normal;font-feature-settings:normal;text-align:start;writing-mode:lr-tb;text-anchor:start;fill:#ff6600;stroke-width:0.38207254"
         id="path4635"
         inkscape:connector-curvature="0" />
      <path
         d="m 130.71846,155.88793 q -0.14957,-0.76318 -0.17146,-1.42398 -0.0238,-0.65358 0.15366,-1.33994 0.22597,-0.87422 0.66746,-1.53857 0.44872,-0.66248 1.10337,-1.04822 0.65652,-0.39295 1.52596,-0.47652 0.86944,-0.0836 1.9315,0.19095 1.97962,0.5117 2.82658,1.88676 0.84509,1.38229 0.38382,3.16684 -0.17929,0.69359 -0.54617,1.30786 -0.36875,0.6215 -0.79432,1.10498 l -1.51,-0.39031 0.0187,-0.0722 q 0.64468,-0.49622 1.07658,-1.09368 0.43004,-0.59023 0.59252,-1.2188 0.2988,-1.15598 -0.30781,-2.02959 -0.60126,-0.86451 -2.10403,-1.25295 -1.45943,-0.37724 -2.41502,0.0694 -0.95024,0.45578 -1.25651,1.64066 -0.10645,0.41182 -0.10825,0.8661 -0.002,0.45428 0.0838,0.83867 0.0752,0.33544 0.1741,0.63849 0.10617,0.30492 0.18977,0.48839 l -0.0187,0.0722 z"
         style="font-style:normal;font-variant:normal;font-weight:normal;font-stretch:normal;font-size:15.28290272px;font-family:'8514fix';-inkscape-font-specification:'8514fix, Normal';font-variant-ligatures:normal;font-variant-caps:normal;font-variant-numeric:normal;font-feature-settings:normal;text-align:start;writing-mode:lr-tb;text-anchor:start;fill:#ff6600;stroke-width:0.38207254"
         id="path4637"
         inkscape:connector-curvature="0" />
      <path
         d="m 125.05731,162.93028 0.86489,-1.10461 3.73687,2.92589 q 0.45242,0.35424 0.88749,0.60959 0.44094,0.25995 0.77463,0.29375 0.36178,0.0463 0.69552,-0.13781 0.3396,-0.17954 0.68464,-0.62021 0.35423,-0.45242 0.5174,-1.12079 0.16317,-0.66836 0.17074,-1.39221 l -4.90023,-3.83679 0.86489,-1.10461 9.1424,7.15832 -0.86488,1.10461 -3.30796,-2.59006 q 0.0241,0.85289 -0.16747,1.59381 -0.19154,0.74092 -0.64699,1.32261 -0.83268,1.06348 -1.91016,1.12021 -1.07749,0.0567 -2.28198,-0.88637 z"
         style="font-style:normal;font-variant:normal;font-weight:normal;font-stretch:normal;font-size:15.28290272px;font-family:'8514fix';-inkscape-font-specification:'8514fix, Normal';font-variant-ligatures:normal;font-variant-caps:normal;font-variant-numeric:normal;font-feature-settings:normal;text-align:start;writing-mode:lr-tb;text-anchor:start;fill:#ff6600;stroke-width:0.38207254"
         id="path4639"
         inkscape:connector-curvature="0" />
    </g>
    <circle
       style="opacity:0.98600003;fill:url(#radialGradient6082);fill-opacity:1;stroke-width:0.02014492"
       id="path6074"
       cx="123.54855"
       cy="114.45776"
       r="3.1224623" />
  </g>
</svg>
